<svg width="25" height="25" viewBox="0 0 25 25" fill="none" xmlns="http://www.w3.org/2000/svg">
<path d="M4.75769 2.68396V20.684H3.75769V22.684H7.75769V20.684H6.75769V15.684H19.7577C20.0229 15.684 20.2773 15.5786 20.4648 15.3911C20.6523 15.2035 20.7577 14.9492 20.7577 14.684V4.68396C20.7577 4.41874 20.6523 4.16439 20.4648 3.97685C20.2773 3.78932 20.0229 3.68396 19.7577 3.68396H6.75769V2.68396H4.75769ZM8.75769 5.68396V7.68396H10.7577V5.68396H12.7577V7.68396H14.7577V5.68396H16.7577V7.68396H18.7577V9.68396H16.7577V11.684H18.7577V13.684H16.7577V11.684H14.7577V13.684H12.7577V11.684H10.7577V13.684H8.75769V11.684H6.75769V9.68396H8.75769V7.68396H6.75769V5.68396H8.75769Z" fill="black"/>
<path d="M8.75769 9.68396H10.7577V11.684H8.75769V9.68396ZM12.7577 9.68396H14.7577V11.684H12.7577V9.68396ZM10.7577 7.68396H12.7577V9.68396H10.7577V7.68396ZM14.7577 7.68396H16.7577V9.68396H14.7577V7.68396Z" fill="black"/>
</svg>
